<mxfile host="app.diagrams.net" modified="2021-01-09T20:18:10.425Z" agent="5.0 (Windows NT 10.0; Win64; x64) AppleWebKit/537.36 (KHTML, like Gecko) Chrome/87.0.4280.141 Safari/537.36" etag="FOqT0A-uq-D3kviyGtxZ" version="14.1.9" type="github" pages="4">
  <diagram id="_6fq170l_UNTLEr8yAsa" name="UseCase:Igranje potapanja brodova">
    <mxGraphModel dx="1038" dy="580" grid="1" gridSize="10" guides="1" tooltips="1" connect="1" arrows="1" fold="1" page="1" pageScale="1" pageWidth="827" pageHeight="1169" math="0" shadow="0">
      <root>
        <mxCell id="0" />
        <mxCell id="1" parent="0" />
        <mxCell id="X9FTrpauw9Sq85jZie8o-1" value="Igrač" style="shape=umlActor;verticalLabelPosition=bottom;verticalAlign=top;html=1;outlineConnect=0;" parent="1" vertex="1">
          <mxGeometry x="80" y="120" width="30" height="60" as="geometry" />
        </mxCell>
        <mxCell id="X9FTrpauw9Sq85jZie8o-6" value="Igranje potapanja bodova" style="ellipse;whiteSpace=wrap;html=1;" parent="1" vertex="1">
          <mxGeometry x="260" y="110" width="140" height="70" as="geometry" />
        </mxCell>
        <mxCell id="X9FTrpauw9Sq85jZie8o-7" value="" style="endArrow=classic;startArrow=classic;html=1;exitX=0.5;exitY=0.5;exitDx=0;exitDy=0;exitPerimeter=0;entryX=0;entryY=0.5;entryDx=0;entryDy=0;" parent="1" source="X9FTrpauw9Sq85jZie8o-1" target="X9FTrpauw9Sq85jZie8o-6" edge="1">
          <mxGeometry width="50" height="50" relative="1" as="geometry">
            <mxPoint x="390" y="320" as="sourcePoint" />
            <mxPoint x="440" y="270" as="targetPoint" />
          </mxGeometry>
        </mxCell>
        <mxCell id="X9FTrpauw9Sq85jZie8o-8" value="Unos igrača&lt;span style=&quot;color: rgba(0 , 0 , 0 , 0) ; font-family: monospace ; font-size: 0px&quot;&gt;%3CmxGraphModel%3E%3Croot%3E%3CmxCell%20id%3D%220%22%2F%3E%3CmxCell%20id%3D%221%22%20parent%3D%220%22%2F%3E%3CmxCell%20id%3D%222%22%20value%3D%22Igranje%20potapanja%20bodova%22%20style%3D%22ellipse%3BwhiteSpace%3Dwrap%3Bhtml%3D1%3B%22%20vertex%3D%221%22%20parent%3D%221%22%3E%3CmxGeometry%20x%3D%22260%22%20y%3D%22110%22%20width%3D%22140%22%20height%3D%2270%22%20as%3D%22geometry%22%2F%3E%3C%2FmxCell%3E%3C%2Froot%3E%3C%2FmxGraphModel%3E&lt;/span&gt;" style="ellipse;whiteSpace=wrap;html=1;" parent="1" vertex="1">
          <mxGeometry x="380" y="10" width="140" height="70" as="geometry" />
        </mxCell>
        <mxCell id="X9FTrpauw9Sq85jZie8o-9" value="Raspoređivanje brodova&lt;span style=&quot;color: rgba(0 , 0 , 0 , 0) ; font-family: monospace ; font-size: 0px&quot;&gt;%3CmxGraphModel%3E%3Croot%3E%3CmxCell%20id%3D%220%22%2F%3E%3CmxCell%20id%3D%221%22%20parent%3D%220%22%2F%3E%3CmxCell%20id%3D%222%22%20value%3D%22Igranje%20potapanja%20bodova%22%20style%3D%22ellipse%3BwhiteSpace%3Dwrap%3Bhtml%3D1%3B%22%20vertex%3D%221%22%20parent%3D%221%22%3E%3CmxGeometry%20x%3D%22260%22%20y%3D%22110%22%20width%3D%22140%22%20height%3D%2270%22%20as%3D%22geometry%22%2F%3E%3C%2FmxCell%3E%3C%2Froot%3E%3C%2FmxGraphModel%3E&lt;/span&gt;" style="ellipse;whiteSpace=wrap;html=1;" parent="1" vertex="1">
          <mxGeometry x="520" y="80" width="140" height="70" as="geometry" />
        </mxCell>
        <mxCell id="X9FTrpauw9Sq85jZie8o-10" value="Gađanje brodova" style="ellipse;whiteSpace=wrap;html=1;" parent="1" vertex="1">
          <mxGeometry x="520" y="190" width="140" height="70" as="geometry" />
        </mxCell>
        <mxCell id="X9FTrpauw9Sq85jZie8o-11" value="Proglašenje pobjednika" style="ellipse;whiteSpace=wrap;html=1;" parent="1" vertex="1">
          <mxGeometry x="380" y="280" width="140" height="70" as="geometry" />
        </mxCell>
        <mxCell id="X9FTrpauw9Sq85jZie8o-12" value="Use" style="endArrow=open;endSize=12;dashed=1;html=1;exitX=0.5;exitY=1;exitDx=0;exitDy=0;entryX=0;entryY=0.5;entryDx=0;entryDy=0;" parent="1" source="X9FTrpauw9Sq85jZie8o-6" target="X9FTrpauw9Sq85jZie8o-11" edge="1">
          <mxGeometry width="160" relative="1" as="geometry">
            <mxPoint x="200" y="260" as="sourcePoint" />
            <mxPoint x="360" y="260" as="targetPoint" />
          </mxGeometry>
        </mxCell>
        <mxCell id="X9FTrpauw9Sq85jZie8o-14" value="Use" style="endArrow=open;endSize=12;dashed=1;html=1;exitX=0.5;exitY=0;exitDx=0;exitDy=0;" parent="1" source="X9FTrpauw9Sq85jZie8o-6" edge="1">
          <mxGeometry width="160" relative="1" as="geometry">
            <mxPoint x="230" y="44.5" as="sourcePoint" />
            <mxPoint x="390" y="44.5" as="targetPoint" />
          </mxGeometry>
        </mxCell>
        <mxCell id="X9FTrpauw9Sq85jZie8o-15" value="Use" style="endArrow=open;endSize=12;dashed=1;html=1;exitX=1;exitY=0;exitDx=0;exitDy=0;" parent="1" source="X9FTrpauw9Sq85jZie8o-6" edge="1">
          <mxGeometry width="160" relative="1" as="geometry">
            <mxPoint x="360" y="114.5" as="sourcePoint" />
            <mxPoint x="520" y="114.5" as="targetPoint" />
          </mxGeometry>
        </mxCell>
        <mxCell id="X9FTrpauw9Sq85jZie8o-16" value="Use" style="endArrow=open;endSize=12;dashed=1;html=1;exitX=1;exitY=1;exitDx=0;exitDy=0;" parent="1" source="X9FTrpauw9Sq85jZie8o-6" edge="1">
          <mxGeometry width="160" relative="1" as="geometry">
            <mxPoint x="360" y="220" as="sourcePoint" />
            <mxPoint x="520" y="220" as="targetPoint" />
          </mxGeometry>
        </mxCell>
      </root>
    </mxGraphModel>
  </diagram>
  <diagram id="Rs0sGWx0MR4FlPed3_t9" name="Activity: Igranje potapanja brodova">
    <mxGraphModel dx="1038" dy="580" grid="1" gridSize="10" guides="1" tooltips="1" connect="1" arrows="1" fold="1" page="1" pageScale="1" pageWidth="827" pageHeight="1169" math="0" shadow="0">
      <root>
        <mxCell id="9JtUEKH2HQr9pTNVLQUo-0" />
        <mxCell id="9JtUEKH2HQr9pTNVLQUo-1" parent="9JtUEKH2HQr9pTNVLQUo-0" />
      </root>
    </mxGraphModel>
  </diagram>
  <diagram id="i42zV5t7z0DlAsn9zdxP" name="Activity: Raspoređivanje brodova">
    <mxGraphModel dx="1038" dy="580" grid="1" gridSize="10" guides="1" tooltips="1" connect="1" arrows="1" fold="1" page="1" pageScale="1" pageWidth="850" pageHeight="1100" math="0" shadow="0">
      <root>
        <mxCell id="apERpVCSCKu2Zn8mHZ7R-0" />
        <mxCell id="apERpVCSCKu2Zn8mHZ7R-1" parent="apERpVCSCKu2Zn8mHZ7R-0" />
        <mxCell id="mzT_BcQpgGXY0Yv1gkW8-2" value="" style="ellipse;html=1;shape=startState;fillColor=#000000;strokeColor=#ff0000;" vertex="1" parent="apERpVCSCKu2Zn8mHZ7R-1">
          <mxGeometry x="410" y="60" width="30" height="30" as="geometry" />
        </mxCell>
        <mxCell id="mzT_BcQpgGXY0Yv1gkW8-3" value="" style="edgeStyle=orthogonalEdgeStyle;html=1;verticalAlign=bottom;endArrow=open;endSize=8;strokeColor=#ff0000;" edge="1" source="mzT_BcQpgGXY0Yv1gkW8-2" parent="apERpVCSCKu2Zn8mHZ7R-1" target="mzT_BcQpgGXY0Yv1gkW8-4">
          <mxGeometry relative="1" as="geometry">
            <mxPoint x="425" y="220" as="targetPoint" />
          </mxGeometry>
        </mxCell>
        <mxCell id="mzT_BcQpgGXY0Yv1gkW8-4" value="Prvi igrač rasporedi brodove" style="rounded=1;whiteSpace=wrap;html=1;arcSize=40;fontColor=#000000;fillColor=#ffffc0;strokeColor=#ff0000;" vertex="1" parent="apERpVCSCKu2Zn8mHZ7R-1">
          <mxGeometry x="365" y="160" width="120" height="40" as="geometry" />
        </mxCell>
        <mxCell id="mzT_BcQpgGXY0Yv1gkW8-5" value="" style="edgeStyle=orthogonalEdgeStyle;html=1;verticalAlign=bottom;endArrow=open;endSize=8;strokeColor=#ff0000;" edge="1" source="mzT_BcQpgGXY0Yv1gkW8-4" parent="apERpVCSCKu2Zn8mHZ7R-1" target="mzT_BcQpgGXY0Yv1gkW8-6">
          <mxGeometry relative="1" as="geometry">
            <mxPoint x="425" y="320" as="targetPoint" />
          </mxGeometry>
        </mxCell>
        <mxCell id="mzT_BcQpgGXY0Yv1gkW8-6" value="Drugi igrač rasporedi brodove" style="rounded=1;whiteSpace=wrap;html=1;arcSize=40;fontColor=#000000;fillColor=#ffffc0;strokeColor=#ff0000;" vertex="1" parent="apERpVCSCKu2Zn8mHZ7R-1">
          <mxGeometry x="365" y="280" width="120" height="40" as="geometry" />
        </mxCell>
        <mxCell id="mzT_BcQpgGXY0Yv1gkW8-7" value="" style="edgeStyle=orthogonalEdgeStyle;html=1;verticalAlign=bottom;endArrow=open;endSize=8;strokeColor=#ff0000;" edge="1" source="mzT_BcQpgGXY0Yv1gkW8-6" parent="apERpVCSCKu2Zn8mHZ7R-1" target="mzT_BcQpgGXY0Yv1gkW8-8">
          <mxGeometry relative="1" as="geometry">
            <mxPoint x="425" y="420" as="targetPoint" />
          </mxGeometry>
        </mxCell>
        <mxCell id="mzT_BcQpgGXY0Yv1gkW8-8" value="Igra postavi prvog igrača za gađanje" style="rounded=1;whiteSpace=wrap;html=1;arcSize=40;fontColor=#000000;fillColor=#ffffc0;strokeColor=#ff0000;" vertex="1" parent="apERpVCSCKu2Zn8mHZ7R-1">
          <mxGeometry x="365" y="400" width="120" height="40" as="geometry" />
        </mxCell>
        <mxCell id="mzT_BcQpgGXY0Yv1gkW8-9" value="" style="edgeStyle=orthogonalEdgeStyle;html=1;verticalAlign=bottom;endArrow=open;endSize=8;strokeColor=#ff0000;" edge="1" source="mzT_BcQpgGXY0Yv1gkW8-8" parent="apERpVCSCKu2Zn8mHZ7R-1">
          <mxGeometry relative="1" as="geometry">
            <mxPoint x="425" y="520" as="targetPoint" />
          </mxGeometry>
        </mxCell>
        <mxCell id="mzT_BcQpgGXY0Yv1gkW8-10" value="" style="ellipse;html=1;shape=endState;fillColor=#000000;strokeColor=#ff0000;" vertex="1" parent="apERpVCSCKu2Zn8mHZ7R-1">
          <mxGeometry x="410" y="520" width="30" height="30" as="geometry" />
        </mxCell>
      </root>
    </mxGraphModel>
  </diagram>
  <diagram id="Vq4a_JPAsvXUs6rB26hr" name="Activity: Gađanje brodova">
    <mxGraphModel dx="1038" dy="580" grid="1" gridSize="10" guides="1" tooltips="1" connect="1" arrows="1" fold="1" page="1" pageScale="1" pageWidth="850" pageHeight="1100" math="0" shadow="0">
      <root>
        <mxCell id="snWAESu3wQaQj8bQ94sy-0" />
        <mxCell id="snWAESu3wQaQj8bQ94sy-1" parent="snWAESu3wQaQj8bQ94sy-0" />
      </root>
    </mxGraphModel>
  </diagram>
</mxfile>
